<svg width="48" height="67" viewBox="0 0 48 67" fill="none" xmlns="http://www.w3.org/2000/svg">
<path d="M1 11.6791C1 8.08871 3.54817 5.36371 7.89022 3.52348C12.216 1.69017 18.0619 0.871908 23.9756 1.01619C29.8858 1.16039 35.7489 2.26321 40.0972 4.17681C44.5173 6.12202 47 8.71776 47 11.6791V11.7633V11.8475V11.9316V12.0156V12.0996V12.1836V12.2674V12.3513V12.435V12.5187V12.6024V12.686V12.7695V12.853V12.9365V13.0198V13.1032V13.1865V13.2697V13.3528V13.436V13.519V13.602V13.685V13.7679V13.8508V13.9336V14.0164V14.0991V14.1818V14.2644V14.3469V14.4295V14.5119V14.5944V14.6767V14.7591V14.8413V14.9236V15.0058V15.0879V15.17V15.2521V15.3341V15.4161V15.498V15.5799V15.6617V15.7435V15.8253V15.907V15.9886V16.0703V16.1519V16.2334V16.3149V16.3964V16.4778V16.5592V16.6405V16.7218V16.8031V16.8843V16.9655V17.0467V17.1278V17.2089V17.2899V17.3709V17.4519V17.5328V17.6137V17.6946V17.7754V17.8562V17.937V18.0177V18.0984V18.1791V18.2597V18.3403V18.4209V18.5014V18.5819V18.6624V18.7429V18.8233V18.9036V18.984V19.0643V19.1446V19.2249V19.3051V19.3853V19.4655V19.5457V19.6258V19.7059V19.786V19.866V19.946V20.026V20.106V20.186V20.2659V20.3458V20.4256V20.5055V20.5853V20.6651V20.7449V20.8247V20.9044V20.9841V21.0638V21.1435V21.2232V21.3028V21.3824V21.462V21.5416V21.6211V21.7007V21.7802V21.8597V21.9392V22.0187V22.0981V22.1776V22.257V22.3364V22.4158V22.4951V22.5745V22.6539V22.7332V22.8125V22.8918V22.9711V23.0504V23.1296V23.2089V23.2881V23.3674V23.4466V23.5258V23.605V23.6842V23.7633V23.8425V23.9217V24.0008V24.0799V24.1591V24.2382V24.3173V24.3964V24.4755V24.5546V24.6337V24.7128V24.7919V24.8709V24.95V25.0291V25.1081V25.1872V25.2662V25.3453V25.4243V25.5034V25.5824V25.6614V25.7405V25.8195V25.8985V25.9776V26.0566V26.1356V26.2147V26.2937V26.3727V26.4518V26.5308V26.6098V26.6889V26.7679V26.847V26.926V27.0051V27.0841V27.1632V27.2423V27.3213V27.4004V27.4795V27.5586V27.6377V27.7168V27.7959V27.875V27.9541V28.0332V28.1124V28.1915V28.2707V28.3498V28.429V28.5082V28.5874V28.6666V28.7458V28.825V28.9043V28.9835V29.0628V29.1421V29.2214V29.3007V29.38V29.4593V29.5386V29.618V29.6974V29.7768V29.8562V29.9356V30.015V30.0945V30.1739V30.2534V30.3329V30.4124V30.492V30.5715V30.6511V30.7307V30.8103V30.8899V30.9696V31.0493V31.129V31.2087V31.2884V31.3682V31.448V31.5278V31.6076V31.6874V31.7673V31.8472V31.9271V32.0071V32.087V32.167V32.247V32.3271V32.4072V32.4873V32.5674V32.6475V32.7277V32.8079V32.8881V32.9684V33.0487V33.129V33.2094V33.2897V33.3702V33.4506V33.5311V33.6116V33.6921V33.7727V33.8532V33.9339V34.0145V34.0952V34.1759V34.2567V34.3375V34.4183V34.4992V34.5801V34.661V34.742V34.823V34.904V34.9851V35.0662V35.1474V35.2286V35.3098V35.391V35.4723V35.5537V35.6351V35.7165V35.7979V35.8794V35.961V36.0426V36.1242V36.2058V36.2876V36.3693V36.4511V36.5329V36.6148V36.6967V36.7787V36.8607V36.9427V37.0248V37.107V37.1892V37.2714V37.3537V37.436V37.5184V37.6008V37.6833V37.7658V37.8483V37.9309V38.0136V38.0963V38.1791V38.2619V38.3447V38.4276V38.5106V38.5936V38.6767V38.7598V38.8429V38.9262V39.0094V39.0927V39.1761V39.2595V39.343V39.4266V39.5102V39.5938V39.6775V39.7613V39.8451V39.9289V40.0129V40.0969V40.1809V40.265V40.3492V40.4334V40.5176V40.602V40.6864V40.7708V40.8553V40.9399V41.0245V41.1092V41.194V41.2788V41.3637V41.4486V41.5336V41.6187V41.7038V41.789V41.8742V41.9596V42.0449V42.1304V42.2159V42.3015V42.3871V42.4728V42.5586V42.6445V42.7304V42.8164V42.9024V42.9885V43.0747V43.161V43.2473V43.3337V43.4201V43.5067V43.5933V43.6799V43.7667V43.8535V43.9404V44.0273V44.1144V44.2015V44.2887V44.3759V44.4632V44.5506V44.6381V44.7256V44.8133V44.901V44.9887V45.0766V45.1645V45.2525V45.3406V45.4287V45.517V45.6053V45.6937V45.7822V45.8707V45.9593V46.048V46.1368V46.2257V46.3146V46.4037V46.4928V46.582V46.6712V46.7606V46.85V46.9396V47.0292V47.1189V47.2086V47.2985V47.3884V47.4785V47.5686V47.6588V47.7491V47.8394V47.9299V48.0204V48.111V48.2018V48.2926V48.3835V48.4744V48.5655V48.6567V48.7479V48.8393V48.9307V49.0222V49.1138V49.2055V49.2973V49.3892V49.4812V49.5733V49.6654V49.7577V49.85V49.9425V50.035V50.1277V50.2204V50.3132V50.4061V50.4991V50.5922V50.6855V50.7788V50.8722V50.9657V51.0592V51.1529V51.2467V51.3406V51.4346V51.5287V51.6229V51.7172V51.8116V51.9061V52.0007V52.0953V52.1901V52.285V52.38V52.4751V52.5703V52.6656V52.7611V52.8566V52.9522V53.0479V53.1438V53.2397V53.3357V53.4319V53.5281V53.6245V53.721V53.8175V53.9142V54.011V54.1079V54.2049V54.302V54.3992V54.4966C47 58.0772 44.4325 60.9354 40.0795 62.9527C35.7493 64.9595 29.9032 65.9938 23.999 66C18.0945 66.0061 12.2492 64.984 7.91996 62.9807C3.56995 60.9677 1 58.104 1 54.4966V54.3987V54.301V54.2034V54.106V54.0088V53.9117V53.8148V53.7181V53.6215V53.5251V53.4289V53.3328V53.2369V53.1411V53.0455V52.95V52.8547V52.7596V52.6646V52.5698V52.4751V52.3806V52.2863V52.1921V52.098V52.0041V51.9104V51.8168V51.7233V51.63V51.5368V51.4438V51.351V51.2583V51.1657V51.0733V50.981V50.8889V50.7969V50.705V50.6133V50.5218V50.4303V50.3391V50.2479V50.1569V50.066V49.9753V49.8847V49.7943V49.7039V49.6138V49.5237V49.4338V49.344V49.2543V49.1648V49.0754V48.9862V48.897V48.808V48.7191V48.6304V48.5418V48.4533V48.3649V48.2766V48.1885V48.1005V48.0126V47.9249V47.8373V47.7498V47.6624V47.5751V47.4879V47.4009V47.314V47.2272V47.1405V47.0539V46.9675V46.8811V46.7949V46.7088V46.6228V46.5369V46.4511V46.3655V46.2799V46.1945V46.1091V46.0239V45.9388V45.8537V45.7688V45.684V45.5993V45.5147V45.4302V45.3458V45.2615V45.1773V45.0932V45.0093V44.9254V44.8416V44.7579V44.6743V44.5908V44.5074V44.424V44.3408V44.2577V44.1747V44.0917V44.0089V43.9261V43.8435V43.7609V43.6784V43.596V43.5137V43.4315V43.3494V43.2673V43.1854V43.1035V43.0217V42.94V42.8584V42.7768V42.6954V42.614V42.5327V42.4515V42.3703V42.2892V42.2083V42.1273V42.0465V41.9657V41.8851V41.8045V41.7239V41.6435V41.5631V41.4827V41.4025V41.3223V41.2422V41.1622V41.0822V41.0023V40.9225V40.8427V40.763V40.6833V40.6038V40.5242V40.4448V40.3654V40.2861V40.2068V40.1276V40.0485V39.9694V39.8904V39.8114V39.7325V39.6536V39.5748V39.4961V39.4174V39.3388V39.2602V39.1817V39.1032V39.0248V38.9464V38.868V38.7898V38.7115V38.6334V38.5552V38.4771V38.3991V38.3211V38.2432V38.1653V38.0874V38.0096V37.9318V37.8541V37.7764V37.6987V37.6211V37.5435V37.466V37.3885V37.311V37.2336V37.1562V37.0788V37.0015V36.9242V36.847V36.7697V36.6925V36.6154V36.5382V36.4611V36.3841V36.307V36.23V36.153V36.076V35.9991V35.9222V35.8453V35.7684V35.6916V35.6147V35.5379V35.4612V35.3844V35.3077V35.2309V35.1542V35.0776V35.0009V34.9242V34.8476V34.771V34.6944V34.6178V34.5412V34.4646V34.3881V34.3115V34.235V34.1585V34.082V34.0055V33.929V33.8525V33.776V33.6995V33.6231V33.5466V33.4701V33.3937V33.3172V33.2407V33.1643V33.0878V33.0114V32.9349V32.8585V32.782V32.7056V32.6291V32.5526V32.4762V32.3997V32.3232V32.2467V32.1702V32.0937V32.0172V31.9407V31.8641V31.7876V31.711V31.6345V31.5579V31.4813V31.4047V31.3281V31.2514V31.1748V31.0981V31.0214V30.9447V30.868V30.7913V30.7145V30.6377V30.5609V30.4841V30.4073V30.3304V30.2535V30.1766V30.0996V30.0227V29.9457V29.8687V29.7916V29.7145V29.6374V29.5603V29.4831V29.4059V29.3287V29.2515V29.1742V29.0968V29.0195V28.9421V28.8647V28.7872V28.7097V28.6322V28.5546V28.477V28.3993V28.3216V28.2439V28.1661V28.0883V28.0104V27.9325V27.8546V27.7766V27.6985V27.6204V27.5423V27.4641V27.3859V27.3076V27.2293V27.1509V27.0725V26.994V26.9155V26.8369V26.7583V26.6796V26.6008V26.522V26.4432V26.3643V26.2853V26.2063V26.1272V26.0481V25.9688V25.8896V25.8103V25.7309V25.6514V25.5719V25.4923V25.4127V25.333V25.2532V25.1734V25.0935V25.0135V24.9335V24.8534V24.7732V24.6929V24.6126V24.5322V24.4518V24.3712V24.2906V24.2099V24.1292V24.0483V23.9674V23.8864V23.8054V23.7242V23.643V23.5617V23.4803V23.3989V23.3173V23.2357V23.154V23.0722V22.9903V22.9083V22.8263V22.7442V22.6619V22.5796V22.4972V22.4148V22.3322V22.2495V22.1668V22.0839V22.001V21.918V21.8348V21.7516V21.6683V21.5849V21.5014V21.4178V21.3341V21.2503V21.1664V21.0824V20.9983V20.9141V20.8299V20.7455V20.661V20.5764V20.4917V20.4069V20.3219V20.2369V20.1518V20.0666V19.9812V19.8958V19.8102V19.7245V19.6388V19.5529V19.4669V19.3808V19.2945V19.2082V19.1217V19.0352V18.9485V18.8617V18.7748V18.6877V18.6006V18.5133V18.4259V18.3384V18.2508V18.163V18.0751V17.9871V17.899V17.8108V17.7224V17.6339V17.5453V17.4565V17.3677V17.2787V17.1895V17.1003V17.0109V16.9213V16.8317V16.7419V16.652V16.5619V16.4717V16.3814V16.2909V16.2004V16.1096V16.0188V15.9278V15.8366V15.7453V15.6539V15.5623V15.4706V15.3788V15.2868V15.1947V15.1024V15.01V14.9174V14.8247V14.7318V14.6388V14.5457V14.4524V14.3589V14.2653V14.1716V14.0777V13.9836V13.8894V13.795V13.7005V13.6059V13.511V13.4161V13.3209V13.2256V13.1302V13.0346V12.9388V12.8429V12.7468V12.6506V12.5541V12.4576V12.3608V12.2639V12.1669V12.0697V11.9723V11.8747V11.777V11.6791Z" fill="#F1F8FF" stroke="#368AFE" stroke-width="2"/>
<line x1="1.04348" y1="55" x2="46.9565" y2="55" stroke="#368AFE" stroke-width="2"/>
<path d="M1.04348 11L46.9565 11" stroke="#368AFE" stroke-width="2"/>
<path d="M18.7826 60H24.5217H30.2609" stroke="#368AFE" stroke-width="2"/>
<path d="M26.1304 6C26.1304 6.17636 26.0397 6.4046 25.7579 6.62061C25.4752 6.83738 25.0415 7 24.5217 7C24.002 7 23.5683 6.83738 23.2855 6.62061C23.0038 6.4046 22.913 6.17636 22.913 6C22.913 5.82364 23.0038 5.5954 23.2855 5.37939C23.5683 5.16262 24.002 5 24.5217 5C25.0415 5 25.4752 5.16262 25.7579 5.37939C26.0397 5.5954 26.1304 5.82364 26.1304 6Z" fill="#368AFE" stroke="#368AFE" stroke-width="2"/>
<path d="M35.5996 33.3774C35.4851 37.0808 33.5333 40.1187 30.5903 42.2609C27.6354 44.4117 23.7213 45.6216 19.8509 45.6216C12.1704 45.6216 6.13278 40.0548 6.13278 33.4083C6.13278 30.2177 8.37789 26.9302 11.8159 24.3787C15.2294 21.8454 19.593 20.2162 23.4036 20.2162C30.8805 20.2162 35.815 26.4099 35.5996 33.3774Z" fill="#F1F8FF" stroke="#368AFE" stroke-width="2"/>
<ellipse cx="27.9765" cy="43.9865" rx="11.6757" ry="8.95946" fill="#F1F8FF"/>
<ellipse cx="15.2855" cy="31.3378" rx="11.168" ry="16.3378" fill="#F1F8FF"/>
<path d="M29.5147 32.9189C29.5147 37.0594 26.291 40.3513 22.3925 40.3513C18.494 40.3513 15.2703 37.0594 15.2703 32.9189C15.2703 28.7784 18.494 25.4865 22.3925 25.4865C26.291 25.4865 29.5147 28.7784 29.5147 32.9189Z" fill="#F1F8FF" stroke="#368AFE" stroke-width="2"/>
<ellipse cx="12.2397" cy="31.3378" rx="10.1528" ry="11.0676" fill="#F1F8FF"/>
<ellipse cx="23.4077" cy="44.5135" rx="11.168" ry="9.48649" fill="#F1F8FF"/>
</svg>
